<?xml version="1.0" standalone="no"?>
<!DOCTYPE svg PUBLIC "-//W3C//DTD SVG 20010904//EN"
 "http://www.w3.org/TR/2001/REC-SVG-20010904/DTD/svg10.dtd">
<svg version="1.0" xmlns="http://www.w3.org/2000/svg"
 width="300.000000pt" height="300.000000pt" viewBox="0 0 300.000000 300.000000"
 preserveAspectRatio="xMidYMid meet">
<metadata>
Created by potrace 1.11, written by Peter Selinger 2001-2013
</metadata>
<g transform="translate(0.000000,300.000000) scale(0.100000,-0.100000)"
fill="#000000" stroke="none">
<path d="M1418 2975 c-1 -1 -35 -5 -75 -9 -39 -3 -120 -17 -179 -31 -483 -114
-869 -460 -1043 -936 -135 -369 -107 -799 75 -1161 143 -285 398 -537 676
-668 85 -40 239 -95 293 -104 17 -3 43 -8 58 -12 65 -14 90 -16 262 -19 145
-2 201 1 288 16 166 30 348 96 481 176 139 83 296 219 391 338 22 28 42 52 45
55 31 31 169 273 170 297 0 12 -33 32 -162 102 l-76 41 -47 -87 c-134 -255
-334 -459 -561 -571 -162 -81 -291 -112 -484 -117 -352 -8 -656 92 -902 298
l-48 40 -47 -18 c-27 -10 -52 -22 -58 -26 -5 -5 -16 -9 -25 -9 -13 0 -15 16
-14 107 l2 108 -40 59 c-90 132 -162 322 -192 511 -14 89 -15 348 -1 425 57
320 181 562 395 771 175 172 381 288 621 350 46 11 102 23 124 26 21 2 60 8
85 13 47 9 348 6 388 -4 13 -3 33 -8 45 -10 12 -3 8 0 -8 8 -17 8 -55 17 -85
21 -30 4 -59 9 -63 12 -9 5 -283 13 -289 8z"/>
<path d="M1499 2826 c-2 -2 -26 -6 -54 -10 -254 -30 -457 -121 -614 -275 -96
-94 -184 -249 -204 -358 -10 -51 7 -54 108 -21 228 75 483 154 627 194 133 36
493 122 578 138 119 23 249 47 268 51 37 9 27 45 -25 97 -80 76 -198 133 -342
164 -65 14 -332 29 -342 20z"/>
<path d="M2428 2474 c-2 -1 -23 -5 -48 -9 -25 -3 -63 -9 -85 -13 l-40 -7 -3
-238 c-3 -260 -6 -245 60 -227 53 15 67 40 65 116 -1 35 0 64 3 63 3 0 30 -30
60 -66 66 -79 87 -91 130 -73 32 13 46 45 36 77 -4 10 -26 40 -51 67 l-45 49
34 37 c59 65 55 160 -6 199 -20 13 -103 32 -110 25z m20 -142 c3 -25 -3 -39
-29 -64 -30 -30 -32 -31 -39 -13 -3 11 -5 36 -4 55 1 19 3 41 3 48 1 9 12 12
34 10 28 -3 32 -7 35 -36z"/>
<path d="M2145 2424 c-185 -37 -215 -45 -216 -57 -1 -20 -1 -441 0 -455 1 -9
9 -12 29 -8 15 4 36 8 47 10 114 24 191 47 202 62 14 19 18 94 6 94 -5 -1 -37
-7 -73 -15 -36 -8 -68 -14 -72 -15 -5 0 -8 20 -8 44 l0 44 53 13 c77 18 87 27
87 75 l0 42 -37 -9 c-21 -5 -53 -12 -70 -15 -32 -5 -33 -4 -33 30 0 37 -3 36
87 56 56 13 64 24 68 88 1 17 1 32 1 31 -1 0 -32 -7 -71 -15z"/>
<path d="M1715 2340 c-89 -21 -153 -69 -193 -144 -21 -42 -27 -66 -28 -136 -3
-105 18 -158 79 -198 80 -53 244 -25 300 51 17 22 21 43 22 129 1 57 0 108 -2
114 -3 8 -28 5 -81 -8 -42 -10 -85 -19 -95 -20 -15 -2 -17 -10 -15 -48 3 -44
4 -45 36 -45 29 0 32 -3 32 -30 0 -41 -16 -55 -62 -55 -54 0 -81 43 -74 116
10 108 60 155 163 153 73 -2 93 10 93 57 0 24 -7 38 -24 49 -27 18 -105 26
-151 15z"/>
<path d="M1264 2210 c-38 -10 -86 -25 -106 -33 l-35 -15 0 -246 c1 -276 -7
-253 72 -221 48 19 59 40 60 116 1 38 3 71 6 74 3 2 33 -25 68 -60 68 -71 99
-81 141 -47 38 31 29 67 -29 126 l-52 52 27 29 c66 72 72 179 12 219 -36 24
-87 25 -164 6z m50 -96 c26 -10 20 -68 -10 -103 -38 -46 -49 -40 -49 27 1 78
13 94 59 76z"/>
<path d="M990 2126 l-35 -13 -1 -187 c-1 -164 -3 -189 -19 -206 -23 -26 -51
-26 -65 0 -6 11 -10 79 -9 162 1 152 -3 175 -29 181 -29 6 -102 -23 -103 -41
-1 -10 -1 -94 -1 -189 -1 -201 8 -227 79 -252 85 -30 210 25 254 111 21 39 23
60 25 223 3 229 -4 244 -96 211z"/>
<path d="M450 1932 l-95 -38 -1 -262 c0 -144 3 -262 6 -262 9 0 70 24 130 52
25 11 63 28 85 38 87 37 135 99 138 175 1 47 -25 88 -65 101 -17 5 -16 8 11
39 37 43 48 102 27 144 -33 64 -98 67 -236 13z m108 -101 c5 -31 -14 -66 -43
-79 -21 -10 -24 -8 -27 11 -2 12 -1 39 1 60 3 36 5 38 35 35 24 -2 32 -8 34
-27z m5 -182 c21 -29 7 -70 -34 -97 l-34 -23 -3 62 c-3 64 4 79 40 79 9 0 23
-9 31 -21z"/>
<path d="M2411 1954 c-223 -46 -351 -214 -339 -443 8 -135 54 -213 156 -263
95 -46 269 -30 367 35 100 66 108 83 110 262 1 77 0 145 -2 151 -3 9 -104 -9
-289 -51 -21 -5 -21 -6 -15 -97 2 -33 31 -50 72 -43 l39 7 0 -36 c0 -47 -33
-70 -101 -69 -80 1 -120 52 -120 153 -1 103 50 178 139 208 30 10 179 8 189
-2 3 -2 18 0 35 6 35 12 60 62 51 99 -19 76 -146 113 -292 83z"/>
<path d="M1969 1835 c-66 -18 -106 -44 -121 -79 -7 -18 -13 -81 -14 -151 -1
-66 -3 -124 -3 -128 -1 -4 -34 32 -75 80 -119 142 -149 168 -196 166 -22 -1
-65 -10 -95 -19 l-55 -18 -1 -170 c-1 -279 2 -550 5 -554 5 -5 138 47 153 60
38 32 47 70 47 221 0 138 1 146 17 130 20 -22 95 -107 167 -190 29 -34 65 -65
80 -70 45 -15 108 3 134 40 22 31 23 35 23 361 0 211 -4 330 -10 332 -5 1 -31
-4 -56 -11z"/>
<path d="M1266 1645 c-83 -28 -115 -50 -138 -95 -15 -29 -17 -73 -18 -366 l0
-333 66 25 c115 43 149 70 159 127 3 17 4 174 3 349 l-3 316 -69 -23z"/>
<path d="M923 1525 c-32 -13 -41 -25 -85 -101 -12 -23 -50 -87 -83 -144 l-60
-102 -3 121 c-1 67 -6 121 -10 121 -4 0 -53 -19 -109 -42 l-103 -41 -1 -36 c0
-40 0 -659 1 -678 0 -13 49 3 145 48 66 31 75 57 75 215 l0 128 31 -35 c101
-114 173 -179 205 -185 78 -14 134 26 141 103 l5 51 -91 94 -91 94 85 134 c47
73 85 138 86 144 0 6 2 18 3 26 13 62 -73 113 -141 85z"/>
<path d="M2763 1255 c-60 -26 -90 -108 -61 -170 40 -87 189 -90 234 -4 57 112
-55 226 -173 174z m121 -37 c51 -46 35 -146 -26 -167 -47 -17 -65 -13 -98 17
-28 25 -36 51 -31 103 0 9 13 28 27 43 35 34 92 36 128 4z"/>
<path d="M2783 1213 c-9 -3 -13 -27 -13 -74 0 -55 3 -69 15 -69 10 0 15 10 15
30 0 17 4 30 10 30 5 0 16 -13 25 -30 9 -16 22 -30 31 -30 13 0 13 4 -3 31
-17 29 -17 31 0 40 18 11 22 36 9 57 -9 13 -67 23 -89 15z m65 -40 c-2 -9 -13
-18 -25 -19 -17 -3 -23 1 -23 16 0 15 7 20 26 20 18 0 25 -5 22 -17z"/>
<path d="M2360 1149 c-547 -143 -1353 -409 -1427 -471 -27 -22 16 -70 109
-118 162 -84 416 -113 645 -74 97 16 262 68 338 106 146 73 311 220 384 341
46 78 83 173 79 205 -4 35 -29 37 -128 11z"/>
</g>
</svg>
